<?xml version="1.0" encoding="UTF-8"?>
<svg width="615px" height="615px" viewBox="0 0 615 615" version="1.1" xmlns="http://www.w3.org/2000/svg" xmlns:xlink="http://www.w3.org/1999/xlink">
    <title>logo-w</title>
    <defs>
        <rect id="path-1" x="128" y="106" width="358" height="370" rx="47"></rect>
    </defs>
    <g id="页面-1" stroke="none" stroke-width="1" fill="none" fill-rule="evenodd">
        <g id="logo-w">
            <rect id="矩形" fill="#000000" x="0" y="0" width="615" height="615"></rect>
            <mask id="mask-2" fill="white">
                <use xlink:href="#path-1"></use>
            </mask>
            <g id="矩形"></g>
            <g id="编组" mask="url(#mask-2)" fill-rule="nonzero">
                <g transform="translate(126.863203, 141.317780)">
                    <polygon id="路径-2" fill="#D9D6D6" points="269.065084 188.861503 295.957514 215.753933 267.073052 243.642379 240.180622 219.737997"></polygon>
                    <polygon id="三角形" fill="#FFFFFF" points="1.13679689 164.95712 184.403729 334.27983 1.13679689 334.27983"></polygon>
                    <path d="M6.66325525,1.18641718 C0.386265342,5.06446581 -1.45588744,17.937118 1.13679689,39.8043738 L1.13679689,112.168276 L239.184606,334.27983 L358.706518,334.27983 L358.706518,154.000945 L267.073052,243.642379 L242.172654,218.741981 L358.706518,99.2200692 L358.706518,37.6580674 C359.931501,17.8975247 358.187165,6.4273531 353.473509,3.24755262 C348.759853,0.0677521465 340.147596,4.55143582 327.636737,16.6986036 L180.419666,158.981025 L36.3099223,18.0737206 C22.8224675,2.93746969 12.9402452,-2.69163144 6.66325525,1.18641718 Z" id="路径" fill="#FFFFFF"></path>
                </g>
            </g>
        </g>
    </g>
</svg>